<svg xmlns="http://www.w3.org/2000/svg" version="1.1" xmlns:xlink="http://www.w3.org/1999/xlink" xmlns:svgjs="http://svgjs.dev/svgjs" width="2000" height="1247" viewBox="0 0 2000 1247"><g transform="matrix(1,0,0,1,-1.2121212121212466,0.5048582995952984)"><svg viewBox="0 0 396 247" data-background-color="#ffffff" preserveAspectRatio="xMidYMid meet" height="1247" width="2000" xmlns="http://www.w3.org/2000/svg" xmlns:xlink="http://www.w3.org/1999/xlink"><g id="tight-bounds" transform="matrix(1,0,0,1,0.2400000000000091,-0.09999999999999432)"><svg viewBox="0 0 395.52 247.2" height="247.2" width="395.52"><g><svg></svg></g><g><svg viewBox="0 0 395.52 247.2" height="247.2" width="395.52"><g transform="matrix(1,0,0,1,75.54432,89.76063566215802)"><svg viewBox="0 0 244.43135999999998 67.67872867568393" height="67.67872867568393" width="244.43135999999998"><g><svg viewBox="0 0 396.8572761085853 109.8827740954513" height="67.67872867568393" width="244.43135999999998"><g transform="matrix(1,0,0,1,0,15.186403655738928)"><svg viewBox="0 0 244.43135999999998 79.50996678397344" height="79.50996678397344" width="244.43135999999998"><g id="textblocktransform"><svg viewBox="0 0 244.43135999999998 79.50996678397344" height="79.50996678397344" width="244.43135999999998" id="textblock"><g><svg viewBox="0 0 244.43135999999998 56.80356389952573" height="56.80356389952573" width="244.43135999999998"><g transform="matrix(1,0,0,1,0,0)"><svg width="244.43135999999998" viewBox="2.13 -32.5 142.31 33.08" height="56.80356389952573" data-palette-color="#6b7280"><g class="wordmark-text-0" data-fill-palette-color="primary" id="text-0"><path d="M12.68 0.58L12.68 0.58Q10.38 0.58 8.46 0.2 6.55-0.18 5.05-0.73 3.55-1.28 2.55-1.83L2.55-1.83 2.13-5.95Q4.05-4.8 6.66-3.94 9.28-3.08 12.35-3.08L12.35-3.08Q16.05-3.08 17.82-4.39 19.6-5.7 19.6-8.33L19.6-8.33 19.6-8.72Q19.6-10.45 18.9-11.55 18.2-12.65 16.54-13.4 14.88-14.15 12.03-14.8L12.03-14.8Q8.43-15.65 6.26-16.81 4.1-17.98 3.14-19.73 2.18-21.48 2.18-24.08L2.18-24.08 2.18-24.3Q2.18-28.23 4.75-30.36 7.33-32.5 12.55-32.5L12.55-32.5Q15.98-32.5 18.39-31.8 20.8-31.1 22.33-30.25L22.33-30.25 22.7-26.45Q20.93-27.5 18.56-28.24 16.2-28.98 13.15-28.98L13.15-28.98Q10.73-28.98 9.22-28.4 7.73-27.83 7.05-26.75 6.38-25.68 6.38-24.15L6.38-24.15 6.38-24.05Q6.38-22.5 7.04-21.4 7.7-20.3 9.36-19.5 11.03-18.7 14.1-17.95L14.1-17.95Q17.63-17.13 19.75-16.05 21.88-14.98 22.84-13.25 23.8-11.53 23.8-8.75L23.8-8.75 23.8-8.22Q23.8-3.9 21.01-1.66 18.23 0.58 12.68 0.58ZM29.05-24.4L33.07-24.4 33.07-9.22Q33.07-7.3 33.61-5.86 34.15-4.42 35.37-3.64 36.6-2.85 38.67-2.85L38.67-2.85Q40.62-2.85 42.02-3.56 43.42-4.28 44.31-5.53 45.2-6.78 45.52-8.35L45.52-8.35 46.25-5.48 45.37-5.48Q45-3.83 44-2.46 43-1.1 41.31-0.29 39.62 0.53 37.15 0.53L37.15 0.53Q34.27 0.53 32.48-0.56 30.7-1.65 29.87-3.74 29.05-5.83 29.05-8.78L29.05-8.78 29.05-24.4ZM45.35-24.4L49.4-24.4 49.4 0 45.35 0 45.52-5.85 45.35-6.1 45.35-24.4ZM59.85-14.93L59.85-14.93 58.92-18.05 59.92-18.1Q60.72-21.2 62.67-22.99 64.62-24.78 67.85-24.78L67.85-24.78Q68.65-24.78 69.28-24.65 69.92-24.53 70.42-24.35L70.42-24.35 70.67-20.43Q70.05-20.63 69.28-20.75 68.52-20.88 67.6-20.88L67.6-20.88Q64.85-20.88 62.81-19.35 60.77-17.82 59.85-14.93ZM60.05 0L56 0 56-24.4 59.95-24.4 59.75-17.2 60.05-16.9 60.05 0ZM85.82 0L77.92 0 77.92-3.5 85.67-3.5Q89.92-3.5 92.06-5.81 94.19-8.13 94.19-12.43L94.19-12.43 94.19-19.55Q94.19-23.88 92.06-26.18 89.92-28.48 85.67-28.48L85.67-28.48 77.89-28.48 77.89-31.95 85.82-31.95Q92.02-31.95 95.19-28.76 98.37-25.58 98.37-19.58L98.37-19.58 98.37-12.4Q98.37-6.43 95.19-3.21 92.02 0 85.82 0L85.82 0ZM79.22 0L75.12 0 75.12-31.95 79.22-31.95 79.22 0ZM114.47 0.55L114.47 0.55Q108.89 0.55 106.07-2.18 103.24-4.9 103.24-9.98L103.24-9.98 103.24-14.33Q103.24-19.48 105.87-22.26 108.49-25.05 113.54-25.05L113.54-25.05Q116.94-25.05 119.22-23.79 121.49-22.53 122.64-20.2 123.79-17.88 123.79-14.65L123.79-14.65 123.79-13.75Q123.79-12.95 123.73-12.15 123.67-11.35 123.57-10.58L123.57-10.58 119.84-10.58Q119.89-11.78 119.9-12.85 119.92-13.93 119.92-14.83L119.92-14.83Q119.92-17.05 119.2-18.59 118.49-20.13 117.08-20.94 115.67-21.75 113.54-21.75L113.54-21.75Q110.39-21.75 108.82-19.93 107.24-18.1 107.24-14.7L107.24-14.7 107.24-12.38 107.27-11.88 107.27-9.55Q107.27-8.03 107.72-6.8 108.17-5.58 109.13-4.69 110.09-3.8 111.58-3.34 113.07-2.88 115.12-2.88L115.12-2.88Q117.49-2.88 119.54-3.5 121.59-4.13 123.39-5.2L123.39-5.2 123.02-1.7Q121.39-0.68 119.24-0.06 117.09 0.55 114.47 0.55ZM122.72-10.58L105.37-10.58 105.37-13.63 122.72-13.63 122.72-10.58ZM138.06 0.5L138.06 0.5Q135.24 0.5 133.51-0.35 131.79-1.2 131.01-2.93 130.24-4.65 130.24-7.23L130.24-7.23 130.24-22.63 134.24-22.63 134.24-7.7Q134.24-5.3 135.34-4.16 136.44-3.03 139.04-3.03L139.04-3.03Q140.51-3.03 141.88-3.35 143.24-3.68 144.44-4.28L144.44-4.28 144.06-0.8Q142.89-0.2 141.31 0.15 139.74 0.5 138.06 0.5ZM143.81-20.8L126.24-20.8 126.24-24.05 144.19-24.05 143.81-20.8ZM134.14-23.65L130.26-23.65 130.24-30.5 134.31-31.03 134.14-23.65Z" fill="#6b7280" data-fill-palette-color="primary"></path></g></svg></g></svg></g><g transform="matrix(1,0,0,1,77.24030976,70.21352205067016)"><svg viewBox="0 0 167.19105023999998 9.296444733303275" height="9.296444733303275" width="167.19105023999998"><g transform="matrix(1,0,0,1,0,0)"><svg width="167.19105023999998" viewBox="2.8 -35.9 864.96 48.1" height="9.296444733303275" data-palette-color="#000000"><path d="M3.05 0.25L3.05 0.25 2.8-2.2 8.5-3.35 6.55-1.4Q6.65-1.85 6.8-2.93 6.95-4 7.1-5.13 7.25-6.25 7.25-6.75L7.25-6.75 7.25-28.5Q7.25-29.05 7.13-30.13 7-31.2 6.83-32.3 6.65-33.4 6.55-33.9L6.55-33.9 8.5-32 2.9-32.9 3.15-35.5Q4.1-35.45 5.25-35.4 6.4-35.35 7.43-35.3 8.45-35.25 8.9-35.25L8.9-35.25 12.1-33.9Q12.05-33.5 11.93-32.35 11.8-31.2 11.68-29.75 11.55-28.3 11.55-27L11.55-27 11.55-8.25Q11.55-6.95 11.65-5.63 11.75-4.3 11.9-3.18 12.05-2.05 12.15-1.4L12.15-1.4 10.2-3.15 17-2.65 16.65 0 9.75 0Q9.15 0 8 0.05 6.85 0.1 5.53 0.15 4.2 0.2 3.05 0.25ZM16.15-14.65L16.15-14.65Q14.05-14.65 12.18-14.73 10.3-14.8 8.1-14.9L8.1-14.9 8.1-17.7Q9.85-17.5 11.65-17.25 13.45-17 15.2-17L15.2-17Q19.15-17 21.53-19 23.9-21 23.9-25.1L23.9-25.1Q23.9-29 21.53-31.05 19.15-33.1 15.2-33.1L15.2-33.1Q14.15-33.1 13.1-33.05 12.05-33 11.03-32.93 10-32.85 8.9-32.75L8.9-32.75 8.9-35.25Q10.95-35.25 13.08-35.38 15.2-35.5 17.25-35.5L17.25-35.5Q22.45-35.5 25.4-32.9 28.35-30.3 28.35-25.1L28.35-25.1Q28.35-21.75 26.68-19.43 25-17.1 22.25-15.88 19.5-14.65 16.15-14.65ZM33.35 0.25L33.35 0.25 33.1-2.15 38.7-3.3 36.7-1.45Q36.8-1.85 36.97-2.85 37.15-3.85 37.32-4.98 37.5-6.1 37.5-6.7L37.5-6.7 37.5-17.8Q37.5-18.45 37.35-19.58 37.2-20.7 37-21.83 36.8-22.95 36.7-23.45L36.7-23.45 38.7-21.15 33.2-22.1 33.45-24.7 39.65-24.7 40.6-23.8 41.3-16.3 39.8-17.9Q40.35-19.25 41.05-20.53 41.75-21.8 42.77-22.85 43.8-23.9 45.32-24.53 46.85-25.15 49.05-25.15L49.05-25.15Q49.9-25.15 50.72-25.03 51.55-24.9 52.35-24.65L52.35-24.65 51.9-16.6 49.05-16.75 49.05-19.35Q49.05-19.6 48.85-20.3 48.65-21 48.37-21.83 48.1-22.65 47.85-23.2L47.85-23.2 50.2-21.9Q49.7-21.85 49.17-21.85 48.65-21.85 48.15-21.85L48.15-21.85Q44.55-21.85 42.92-19.7 41.3-17.55 41.3-14L41.3-14 41.3-8.2Q41.3-6.25 41.45-4.2 41.6-2.15 41.75-1.25L41.75-1.25 39.9-3.1 46.6-2.6 46.3 0 38.85 0Q38.35 0 37.4 0.05 36.45 0.1 35.37 0.15 34.3 0.2 33.35 0.25ZM67.89 0.5L67.89 0.5Q64.09 0.5 61.55-1.15 58.99-2.8 57.72-5.68 56.45-8.55 56.45-12.3L56.45-12.3Q56.45-16.1 57.72-18.98 58.99-21.85 61.55-23.5 64.09-25.15 67.89-25.15L67.89-25.15Q73.59-25.15 76.42-21.63 79.25-18.1 79.25-12.3L79.25-12.3Q79.25-8.55 77.97-5.65 76.69-2.75 74.17-1.13 71.64 0.5 67.89 0.5ZM67.89-2.2L67.89-2.2Q70.59-2.2 72.14-3.7 73.69-5.2 74.32-7.53 74.94-9.85 74.94-12.3L74.94-12.3Q74.94-14.8 74.32-17.13 73.69-19.45 72.14-20.95 70.59-22.45 67.89-22.45L67.89-22.45Q65.19-22.45 63.64-20.98 62.09-19.5 61.42-17.18 60.74-14.85 60.74-12.3L60.74-12.3Q60.74-9.8 61.42-7.48 62.09-5.15 63.64-3.68 65.19-2.2 67.89-2.2ZM92.69 0.75L92.69 0.75Q89.34 0.75 88.22-1.05 87.09-2.85 87.09-6.2L87.09-6.2 87.09-23.75 88.69-22.1 82.89-22.1 82.74-24.1Q83.39-24.35 84.34-24.68 85.29-25 86.27-25.35 87.24-25.7 87.84-25.9L87.84-25.9 86.14-24.25Q86.39-24.55 86.82-25.33 87.24-26.1 87.69-27.08 88.14-28.05 88.54-28.85 88.94-29.65 89.09-30L89.09-30 90.89-29.8 90.89-6Q90.89-4.3 91.49-3.35 92.09-2.4 93.79-2.4L93.79-2.4Q94.89-2.4 96.07-2.93 97.24-3.45 98.19-4.3L98.19-4.3 99.54-2.15Q97.74-0.7 96.02 0.03 94.29 0.75 92.69 0.75ZM98.04-22.1L90.04-22.1 90.04-24.7 98.29-24.7 98.04-22.1ZM114.69 0.5L114.69 0.5Q110.94 0.5 108.39-1.15 105.84-2.8 104.56-5.7 103.29-8.6 103.29-12.25L103.29-12.25Q103.29-15.95 104.44-18.85 105.59-21.75 107.99-23.43 110.39-25.1 114.04-25.1L114.04-25.1Q117.54-25.1 119.59-23.65 121.64-22.2 122.56-19.6 123.49-17 123.49-13.6L123.49-13.6 122.69-12 106.49-12 106.49-14.25 120.94-15.35 119.34-13.6Q119.34-14.25 119.36-14.88 119.39-15.5 119.39-16.25L119.39-16.25Q119.39-18.9 118.04-20.8 116.69-22.7 113.89-22.7L113.89-22.7Q112.04-22.7 110.79-21.78 109.54-20.85 108.84-19.3 108.14-17.75 107.84-15.98 107.54-14.2 107.54-12.45L107.54-12.45Q107.54-10.8 107.94-9.08 108.34-7.35 109.19-5.85 110.04-4.35 111.31-3.45 112.59-2.55 114.39-2.55L114.39-2.55Q116.74-2.55 118.86-3.28 120.99-4 122.09-4.65L122.09-4.65 123.39-2.45Q123.54-2.6 123.04-2.18 122.54-1.75 121.41-1.13 120.29-0.5 118.61 0 116.94 0.5 114.69 0.5ZM139.54 0.5L139.54 0.5Q135.74 0.5 133.21-1.13 130.69-2.75 129.44-5.65 128.19-8.55 128.19-12.3L128.19-12.3Q128.19-16.1 129.46-18.98 130.74-21.85 133.29-23.48 135.84-25.1 139.64-25.1L139.64-25.1Q141.84-25.1 143.49-24.6 145.14-24.1 147.39-23.3L147.39-23.3 146.89-17.35 144.14-17.5 144.14-19.2Q144.14-19.6 143.86-20.53 143.59-21.45 143.34-22.25L143.34-22.25 144.89-20.65Q143.54-21.35 142.21-21.88 140.89-22.4 139.59-22.4L139.59-22.4Q137.04-22.4 135.51-20.88 133.99-19.35 133.29-17.05 132.59-14.75 132.59-12.3L132.59-12.3Q132.59-9.85 133.26-7.63 133.94-5.4 135.44-4 136.94-2.6 139.49-2.6L139.49-2.6Q141.34-2.6 143.06-3.1 144.79-3.6 146.59-4.45L146.59-4.45 147.94-2.15Q145.84-0.75 143.79-0.13 141.74 0.5 139.54 0.5ZM160.94 0.75L160.94 0.75Q157.59 0.75 156.46-1.05 155.34-2.85 155.34-6.2L155.34-6.2 155.34-23.75 156.94-22.1 151.14-22.1 150.99-24.1Q151.64-24.35 152.59-24.68 153.54-25 154.51-25.35 155.49-25.7 156.09-25.9L156.09-25.9 154.39-24.25Q154.64-24.55 155.06-25.33 155.49-26.1 155.94-27.08 156.39-28.05 156.79-28.85 157.19-29.65 157.34-30L157.34-30 159.14-29.8 159.14-6Q159.14-4.3 159.74-3.35 160.34-2.4 162.04-2.4L162.04-2.4Q163.14-2.4 164.31-2.93 165.49-3.45 166.44-4.3L166.44-4.3 167.79-2.15Q165.99-0.7 164.26 0.03 162.54 0.75 160.94 0.75ZM166.29-22.1L158.29-22.1 158.29-24.7 166.54-24.7 166.29-22.1ZM171.18 0.25L171.18 0.25 170.93-2.15 176.53-3.3 174.53-1.45Q174.63-1.85 174.81-2.85 174.98-3.85 175.16-4.98 175.33-6.1 175.33-6.7L175.33-6.7 175.33-17.8Q175.33-18.45 175.21-19.48 175.08-20.5 174.91-21.6 174.73-22.7 174.58-23.45L174.58-23.45 176.53-21.15 171.03-22.1 171.28-24.7 178.48-24.7 179.43-23.8Q179.38-23.05 179.31-21.73 179.23-20.4 179.18-18.95 179.13-17.5 179.13-16.3L179.13-16.3 179.13-8.2Q179.13-6.25 179.28-4.2 179.43-2.15 179.58-1.25L179.58-1.25 177.73-3.1 183.38-2.6 183.03 0 176.68 0Q176.18 0 175.23 0.05 174.28 0.1 173.21 0.15 172.13 0.2 171.18 0.25ZM176.48-29.6L176.48-29.6Q175.08-29.6 174.33-30.45 173.58-31.3 173.58-32.7L173.58-32.7Q173.58-34.15 174.33-35.02 175.08-35.9 176.48-35.9L176.48-35.9Q177.88-35.9 178.63-35.08 179.38-34.25 179.38-32.7L179.38-32.7Q179.38-31.3 178.66-30.45 177.93-29.6 176.48-29.6ZM186.48 0.25L186.48 0.25 186.23-2.15 191.83-3.3 189.83-1.45Q189.93-1.85 190.11-2.85 190.28-3.85 190.46-4.98 190.63-6.1 190.63-6.7L190.63-6.7 190.63-17.8Q190.63-18.45 190.48-19.58 190.33-20.7 190.13-21.83 189.93-22.95 189.83-23.45L189.83-23.45 191.83-21.15 186.33-22.1 186.58-24.7 192.78-24.7 193.73-23.8 194.43-16.3 193.33-19.2Q194.08-21.1 195.26-22.4 196.43-23.7 198.03-24.4 199.63-25.1 201.53-25.1L201.53-25.1Q205.08-25.1 206.88-23.68 208.68-22.25 209.33-19.65 209.98-17.05 209.98-13.55L209.98-13.55 209.98-8.2Q209.98-6.35 210.16-4.55 210.33-2.75 210.48-1.75L210.48-1.75 208.68-3.1 214.33-2.6 213.98 0 207.58 0Q207.38 0 206.48 0.05 205.58 0.1 204.51 0.15 203.43 0.2 202.58 0.25L202.58 0.25 202.33-2.15 207.33-3.35 205.48-2.2Q205.63-2.7 205.81-3.43 205.98-4.15 206.11-5 206.23-5.85 206.23-6.7L206.23-6.7 206.23-13.6Q206.23-15.8 205.83-17.78 205.43-19.75 204.28-21 203.13-22.25 200.93-22.25L200.93-22.25Q197.88-22.25 196.16-19.85 194.43-17.45 194.43-13.75L194.43-13.75 194.43-8.2Q194.43-6.25 194.58-4.2 194.73-2.15 194.88-1.25L194.88-1.25 193.03-3.1 198.68-2.6 198.33 0 191.98 0Q191.48 0 190.53 0.05 189.58 0.1 188.51 0.15 187.43 0.2 186.48 0.25ZM226.58 11.75L226.58 11.75Q216.83 11.75 216.83 4.5L216.83 4.5Q216.83 3.8 218.28 2.23 219.73 0.65 221.93-1.05L221.93-1.05 223.78-0.85Q222.58 0.6 221.95 1.48 221.33 2.35 221.1 2.88 220.88 3.4 220.88 3.95L220.88 3.95Q220.88 6.55 222.58 7.78 224.28 9 227.93 9L227.93 9Q231.08 9 233.13 7.53 235.18 6.05 235.18 3.65L235.18 3.65Q235.18 2.5 234.75 2 234.33 1.5 233.18 1.35L233.18 1.35 226.68 0.55Q225.33 0.35 224.38 0.18 223.43 0 221.93-0.45L221.93-0.45Q220.23-1 219.5-1.9 218.78-2.8 218.78-4.2L218.78-4.2Q218.78-5.2 223.03-8.7L223.03-8.7 224.68-8.15Q223.58-7.05 223.13-6.33 222.68-5.6 222.68-5.35L222.68-5.35Q222.68-4.6 223.6-4.28 224.53-3.95 227.43-3.6L227.43-3.6Q228.98-3.4 230.83-3.18 232.68-2.95 234.35-2.68 236.03-2.4 237.03-2.1L237.03-2.1Q239.23-1.4 239.23 2.25L239.23 2.25Q239.23 4.85 237.5 7 235.78 9.15 232.93 10.45 230.08 11.75 226.58 11.75ZM227.48-7L227.48-7Q224.58-7 222.43-8.15 220.28-9.3 219.1-11.35 217.93-13.4 217.93-16.1L217.93-16.1Q217.93-18.85 219.13-20.85 220.33-22.85 222.48-23.98 224.63-25.1 227.48-25.1L227.48-25.1Q230.38-25.1 232.53-23.95 234.68-22.8 235.85-20.78 237.03-18.75 237.03-16.05L237.03-16.05Q237.03-13.35 235.83-11.3 234.63-9.25 232.5-8.13 230.38-7 227.48-7ZM227.48-9.5L227.48-9.5Q232.98-9.5 232.98-16.05L232.98-16.05Q232.98-22.65 227.48-22.65L227.48-22.65Q221.93-22.65 221.93-16.1L221.93-16.1Q221.93-9.5 227.48-9.5ZM239.23-25.3L239.63-22.1 234.38-22.2 231.28-23.7 239.23-25.3ZM274.47-15.9L264.12 12.2 261.02 10.95 260.92 10.55Q261.77 9.25 262.42 8.03 263.07 6.8 263.65 5.43 264.22 4.05 264.85 2.35 265.47 0.65 266.27-1.6L266.27-1.6 266.37 1.5 258.47-16.7Q257.77-18.35 256.87-19.95 255.97-21.55 255.07-23.15L255.07-23.15 257.47-21.25 253.47-22.1 253.72-24.7 264.52-24.7 264.67-22.1 259.22-21.55 260.42-23.35Q260.82-21.9 261.22-20.38 261.62-18.85 262.22-17.4L262.22-17.4 268.02-3.35 266.72-3.35 271.82-16.7Q272.42-18.3 272.87-19.98 273.32-21.65 273.72-23.3L273.72-23.3 274.92-21.4 269.47-22.35 269.72-24.7 279.67-24.7 279.82-22.1 275.47-21.45 277.82-23.25Q276.97-21.4 276.07-19.6 275.17-17.8 274.47-15.9L274.47-15.9ZM293.22 0.5L293.22 0.5Q289.42 0.5 286.87-1.15 284.32-2.8 283.05-5.68 281.77-8.55 281.77-12.3L281.77-12.3Q281.77-16.1 283.05-18.98 284.32-21.85 286.87-23.5 289.42-25.15 293.22-25.15L293.22-25.15Q298.92-25.15 301.75-21.63 304.57-18.1 304.57-12.3L304.57-12.3Q304.57-8.55 303.3-5.65 302.02-2.75 299.5-1.13 296.97 0.5 293.22 0.5ZM293.22-2.2L293.22-2.2Q295.92-2.2 297.47-3.7 299.02-5.2 299.65-7.53 300.27-9.85 300.27-12.3L300.27-12.3Q300.27-14.8 299.65-17.13 299.02-19.45 297.47-20.95 295.92-22.45 293.22-22.45L293.22-22.45Q290.52-22.45 288.97-20.98 287.42-19.5 286.75-17.18 286.07-14.85 286.07-12.3L286.07-12.3Q286.07-9.8 286.75-7.48 287.42-5.15 288.97-3.68 290.52-2.2 293.22-2.2ZM319.97 0.55L319.97 0.55Q316.47 0.55 314.74-0.93 313.02-2.4 312.47-5.03 311.92-7.65 311.92-11.05L311.92-11.05 311.92-17.8Q311.92-18.25 311.82-19.13 311.72-20 311.54-21.05 311.37-22.1 311.22-22.95L311.22-22.95 313.02-21.1 308.07-22.1 308.27-24.7 315.07-24.7 316.02-23.8Q315.97-22.75 315.87-21.35 315.77-19.95 315.72-18.6 315.67-17.25 315.67-16.3L315.67-16.3 315.67-9.15Q315.67-6.25 316.77-4.38 317.87-2.5 320.77-2.5L320.77-2.5Q322.92-2.5 324.32-3.65 325.72-4.8 326.44-6.63 327.17-8.45 327.17-10.4L327.17-10.4 327.17-17.8Q327.17-18.25 327.07-19.13 326.97-20 326.82-21.05 326.67-22.1 326.52-22.95L326.52-22.95 328.37-21.15 323.17-22.1 323.37-24.7 330.32-24.7 331.27-23.8Q331.22-22.75 331.14-21.35 331.07-19.95 331.02-18.6 330.97-17.25 330.97-16.3L330.97-16.3 330.97-8.2Q330.97-6.5 331.19-4.78 331.42-3.05 331.57-1.3L331.57-1.3 329.77-3.15 334.97-2.6 334.67 0 328.42 0 327.47-5.55 327.97-4.35Q327.67-3.75 326.79-2.58 325.92-1.4 324.29-0.43 322.67 0.55 319.97 0.55ZM356.66 0.5L356.66 0.5Q353.31 0.5 351.36-1.23 349.41-2.95 349.41-5.85L349.41-5.85Q349.41-8.45 351.09-10.18 352.76-11.9 356.11-12.45L356.11-12.45 364.86-13.9 364.86-11.45 356.71-9.9Q355.21-9.65 354.36-8.75 353.51-7.85 353.51-6.55L353.51-6.55Q353.51-4.65 354.49-3.58 355.46-2.5 357.26-2.5L357.26-2.5Q359.91-2.5 361.89-4.2 363.86-5.9 364.21-8.4L364.21-8.4 364.21-15.45Q364.21-19.05 363.01-20.83 361.81-22.6 359.41-22.6L359.41-22.6Q358.36-22.6 357.16-22.4 355.96-22.2 354.91-21.85 353.86-21.5 353.31-21.1L353.31-21.1 354.86-23.25 354.26-19.5 354.31-17.45 351.41-17.3 350.91-23.95Q352.41-24.35 353.91-24.6 355.41-24.85 356.91-24.98 358.41-25.1 359.91-25.1L359.91-25.1Q364.36-25.1 366.16-22.68 367.96-20.25 367.96-14.35L367.96-14.35 367.96-8.2Q367.96-5.95 368.24-4.28 368.51-2.6 368.71-1.65L368.71-1.65 367.06-3.15 371.96-2.6 371.66 0 365.41 0 364.41-5.65 365.31-5.8Q365.21-4.4 363.99-2.93 362.76-1.45 360.84-0.48 358.91 0.5 356.66 0.5ZM384.21 11.75L384.21 11.75Q374.46 11.75 374.46 4.5L374.46 4.5Q374.46 3.8 375.91 2.23 377.36 0.65 379.56-1.05L379.56-1.05 381.41-0.85Q380.21 0.6 379.59 1.48 378.96 2.35 378.74 2.88 378.51 3.4 378.51 3.95L378.51 3.95Q378.51 6.55 380.21 7.78 381.91 9 385.56 9L385.56 9Q388.71 9 390.76 7.53 392.81 6.05 392.81 3.65L392.81 3.65Q392.81 2.5 392.39 2 391.96 1.5 390.81 1.35L390.81 1.35 384.31 0.55Q382.96 0.35 382.01 0.18 381.06 0 379.56-0.45L379.56-0.45Q377.86-1 377.14-1.9 376.41-2.8 376.41-4.2L376.41-4.2Q376.41-5.2 380.66-8.7L380.66-8.7 382.31-8.15Q381.21-7.05 380.76-6.33 380.31-5.6 380.31-5.35L380.31-5.35Q380.31-4.6 381.24-4.28 382.16-3.95 385.06-3.6L385.06-3.6Q386.61-3.4 388.46-3.18 390.31-2.95 391.99-2.68 393.66-2.4 394.66-2.1L394.66-2.1Q396.86-1.4 396.86 2.25L396.86 2.25Q396.86 4.85 395.14 7 393.41 9.15 390.56 10.45 387.71 11.75 384.21 11.75ZM385.11-7L385.11-7Q382.21-7 380.06-8.15 377.91-9.3 376.74-11.35 375.56-13.4 375.56-16.1L375.56-16.1Q375.56-18.85 376.76-20.85 377.96-22.85 380.11-23.98 382.26-25.1 385.11-25.1L385.11-25.1Q388.01-25.1 390.16-23.95 392.31-22.8 393.49-20.78 394.66-18.75 394.66-16.05L394.66-16.05Q394.66-13.35 393.46-11.3 392.26-9.25 390.14-8.13 388.01-7 385.11-7ZM385.11-9.5L385.11-9.5Q390.61-9.5 390.61-16.05L390.61-16.05Q390.61-22.65 385.11-22.65L385.11-22.65Q379.56-22.65 379.56-16.1L379.56-16.1Q379.56-9.5 385.11-9.5ZM396.86-25.3L397.26-22.1 392.01-22.2 388.91-23.7 396.86-25.3ZM408.26 0.5L408.26 0.5Q404.91 0.5 402.96-1.23 401.01-2.95 401.01-5.85L401.01-5.85Q401.01-8.45 402.68-10.18 404.36-11.9 407.71-12.45L407.71-12.45 416.46-13.9 416.46-11.45 408.31-9.9Q406.81-9.65 405.96-8.75 405.11-7.85 405.11-6.55L405.11-6.55Q405.11-4.65 406.08-3.58 407.06-2.5 408.86-2.5L408.86-2.5Q411.51-2.5 413.48-4.2 415.46-5.9 415.81-8.4L415.81-8.4 415.81-15.45Q415.81-19.05 414.61-20.83 413.41-22.6 411.01-22.6L411.01-22.6Q409.96-22.6 408.76-22.4 407.56-22.2 406.51-21.85 405.46-21.5 404.91-21.1L404.91-21.1 406.46-23.25 405.86-19.5 405.91-17.45 403.01-17.3 402.51-23.95Q404.01-24.35 405.51-24.6 407.01-24.85 408.51-24.98 410.01-25.1 411.51-25.1L411.51-25.1Q415.96-25.1 417.76-22.68 419.56-20.25 419.56-14.35L419.56-14.35 419.56-8.2Q419.56-5.95 419.83-4.28 420.11-2.6 420.31-1.65L420.31-1.65 418.66-3.15 423.56-2.6 423.26 0 417.01 0 416.01-5.65 416.91-5.8Q416.81-4.4 415.58-2.93 414.36-1.45 412.43-0.48 410.51 0.5 408.26 0.5ZM426.66 0.25L426.66 0.25 426.41-2.15 432.01-3.3 430.01-1.45Q430.11-1.85 430.28-2.85 430.46-3.85 430.63-4.98 430.81-6.1 430.81-6.7L430.81-6.7 430.81-17.8Q430.81-18.45 430.68-19.48 430.56-20.5 430.38-21.6 430.21-22.7 430.06-23.45L430.06-23.45 432.01-21.15 426.51-22.1 426.76-24.7 433.96-24.7 434.91-23.8Q434.86-23.05 434.78-21.73 434.71-20.4 434.66-18.95 434.61-17.5 434.61-16.3L434.61-16.3 434.61-8.2Q434.61-6.25 434.76-4.2 434.91-2.15 435.06-1.25L435.06-1.25 433.21-3.1 438.86-2.6 438.51 0 432.16 0Q431.66 0 430.71 0.05 429.76 0.1 428.68 0.15 427.61 0.2 426.66 0.25ZM431.96-29.6L431.96-29.6Q430.56-29.6 429.81-30.45 429.06-31.3 429.06-32.7L429.06-32.7Q429.06-34.15 429.81-35.02 430.56-35.9 431.96-35.9L431.96-35.9Q433.36-35.9 434.11-35.08 434.86-34.25 434.86-32.7L434.86-32.7Q434.86-31.3 434.13-30.45 433.41-29.6 431.96-29.6ZM441.95 0.25L441.95 0.25 441.7-2.15 447.3-3.3 445.3-1.45Q445.4-1.85 445.58-2.85 445.75-3.85 445.93-4.98 446.1-6.1 446.1-6.7L446.1-6.7 446.1-17.8Q446.1-18.45 445.95-19.58 445.8-20.7 445.6-21.83 445.4-22.95 445.3-23.45L445.3-23.45 447.3-21.15 441.8-22.1 442.05-24.7 448.25-24.7 449.2-23.8 449.9-16.3 448.8-19.2Q449.55-21.1 450.73-22.4 451.9-23.7 453.5-24.4 455.1-25.1 457-25.1L457-25.1Q460.55-25.1 462.35-23.68 464.15-22.25 464.8-19.65 465.45-17.05 465.45-13.55L465.45-13.55 465.45-8.2Q465.45-6.35 465.63-4.55 465.8-2.75 465.95-1.75L465.95-1.75 464.15-3.1 469.8-2.6 469.45 0 463.05 0Q462.85 0 461.95 0.05 461.05 0.1 459.98 0.15 458.9 0.2 458.05 0.25L458.05 0.25 457.8-2.15 462.8-3.35 460.95-2.2Q461.1-2.7 461.28-3.43 461.45-4.15 461.58-5 461.7-5.85 461.7-6.7L461.7-6.7 461.7-13.6Q461.7-15.8 461.3-17.78 460.9-19.75 459.75-21 458.6-22.25 456.4-22.25L456.4-22.25Q453.35-22.25 451.63-19.85 449.9-17.45 449.9-13.75L449.9-13.75 449.9-8.2Q449.9-6.25 450.05-4.2 450.2-2.15 450.35-1.25L450.35-1.25 448.5-3.1 454.15-2.6 453.8 0 447.45 0Q446.95 0 446 0.05 445.05 0.1 443.98 0.15 442.9 0.2 441.95 0.25ZM481.65 0.5L481.65 0.5Q478.6 0.5 476.68-0.28 474.75-1.05 473.9-1.55L473.9-1.55 473.9-8 476.75-8.2 476.75-6.2Q476.75-5.85 477-5.05 477.25-4.25 477.65-3.4 478.05-2.55 478.45-1.95L478.45-1.95 477-4.1Q477.9-2.8 479.05-2.35 480.2-1.9 481.7-1.9L481.7-1.9Q483.7-1.9 484.9-2.85 486.1-3.8 486.1-5.85L486.1-5.85Q486.1-7.7 484.5-8.78 482.9-9.85 480.8-10.85L480.8-10.85Q479.55-11.45 478.3-12.13 477.05-12.8 476.03-13.68 475-14.55 474.38-15.75 473.75-16.95 473.75-18.6L473.75-18.6Q473.75-21.7 475.98-23.43 478.2-25.15 481.45-25.15L481.45-25.15Q483.1-25.15 484.95-24.93 486.8-24.7 488.55-24.3L488.55-24.3 488.5-17.25 485.65-17.4 485.65-19.15Q485.65-19.45 485.38-20.25 485.1-21.05 484.78-21.93 484.45-22.8 484.25-23.3L484.25-23.3 485.95-21.45Q484.7-22.15 483.8-22.4 482.9-22.65 481.5-22.65L481.5-22.65Q479.75-22.65 478.65-21.78 477.55-20.9 477.55-19.3L477.55-19.3Q477.55-17.55 479.15-16.48 480.75-15.4 482.85-14.45L482.85-14.45Q484.15-13.85 485.4-13.15 486.65-12.45 487.7-11.58 488.75-10.7 489.38-9.53 490-8.35 490-6.75L490-6.75Q490-2.8 487.75-1.15 485.5 0.5 481.65 0.5ZM503.45 0.75L503.45 0.75Q500.1 0.75 498.97-1.05 497.85-2.85 497.85-6.2L497.85-6.2 497.85-23.75 499.45-22.1 493.65-22.1 493.5-24.1Q494.15-24.35 495.1-24.68 496.05-25 497.02-25.35 498-25.7 498.6-25.9L498.6-25.9 496.9-24.25Q497.15-24.55 497.57-25.33 498-26.1 498.45-27.08 498.9-28.05 499.3-28.85 499.7-29.65 499.85-30L499.85-30 501.65-29.8 501.65-6Q501.65-4.3 502.25-3.35 502.85-2.4 504.55-2.4L504.55-2.4Q505.65-2.4 506.82-2.93 508-3.45 508.95-4.3L508.95-4.3 510.3-2.15Q508.5-0.7 506.77 0.03 505.05 0.75 503.45 0.75ZM508.8-22.1L500.8-22.1 500.8-24.7 509.05-24.7 508.8-22.1ZM533.64 0.5L533.64 0.5Q530.59 0.5 528.67-0.28 526.74-1.05 525.89-1.55L525.89-1.55 525.89-8 528.74-8.2 528.74-6.2Q528.74-5.85 528.99-5.05 529.24-4.25 529.64-3.4 530.04-2.55 530.44-1.95L530.44-1.95 528.99-4.1Q529.89-2.8 531.04-2.35 532.19-1.9 533.69-1.9L533.69-1.9Q535.69-1.9 536.89-2.85 538.09-3.8 538.09-5.85L538.09-5.85Q538.09-7.7 536.49-8.78 534.89-9.85 532.79-10.85L532.79-10.85Q531.54-11.45 530.29-12.13 529.04-12.8 528.02-13.68 526.99-14.55 526.37-15.75 525.74-16.95 525.74-18.6L525.74-18.6Q525.74-21.7 527.97-23.43 530.19-25.15 533.44-25.15L533.44-25.15Q535.09-25.15 536.94-24.93 538.79-24.7 540.54-24.3L540.54-24.3 540.49-17.25 537.64-17.4 537.64-19.15Q537.64-19.45 537.37-20.25 537.09-21.05 536.77-21.93 536.44-22.8 536.24-23.3L536.24-23.3 537.94-21.45Q536.69-22.15 535.79-22.4 534.89-22.65 533.49-22.65L533.49-22.65Q531.74-22.65 530.64-21.78 529.54-20.9 529.54-19.3L529.54-19.3Q529.54-17.55 531.14-16.48 532.74-15.4 534.84-14.45L534.84-14.45Q536.14-13.85 537.39-13.15 538.64-12.45 539.69-11.58 540.74-10.7 541.37-9.53 541.99-8.35 541.99-6.75L541.99-6.75Q541.99-2.8 539.74-1.15 537.49 0.5 533.64 0.5ZM557.39 0.55L557.39 0.55Q553.89 0.55 552.17-0.93 550.44-2.4 549.89-5.03 549.34-7.65 549.34-11.05L549.34-11.05 549.34-17.8Q549.34-18.25 549.24-19.13 549.14-20 548.97-21.05 548.79-22.1 548.64-22.95L548.64-22.95 550.44-21.1 545.49-22.1 545.69-24.7 552.49-24.7 553.44-23.8Q553.39-22.75 553.29-21.35 553.19-19.95 553.14-18.6 553.09-17.25 553.09-16.3L553.09-16.3 553.09-9.15Q553.09-6.25 554.19-4.38 555.29-2.5 558.19-2.5L558.19-2.5Q560.34-2.5 561.74-3.65 563.14-4.8 563.87-6.63 564.59-8.45 564.59-10.4L564.59-10.4 564.59-17.8Q564.59-18.25 564.49-19.13 564.39-20 564.24-21.05 564.09-22.1 563.94-22.95L563.94-22.95 565.79-21.15 560.59-22.1 560.79-24.7 567.74-24.7 568.69-23.8Q568.64-22.75 568.57-21.35 568.49-19.95 568.44-18.6 568.39-17.25 568.39-16.3L568.39-16.3 568.39-8.2Q568.39-6.5 568.62-4.78 568.84-3.05 568.99-1.3L568.99-1.3 567.19-3.15 572.39-2.6 572.09 0 565.84 0 564.89-5.55 565.39-4.35Q565.09-3.75 564.22-2.58 563.34-1.4 561.72-0.43 560.09 0.55 557.39 0.55ZM584.19 0.5L584.19 0.5Q581.14 0.5 579.21-0.28 577.29-1.05 576.44-1.55L576.44-1.55 576.44-8 579.29-8.2 579.29-6.2Q579.29-5.85 579.54-5.05 579.79-4.25 580.19-3.4 580.59-2.55 580.99-1.95L580.99-1.95 579.54-4.1Q580.44-2.8 581.59-2.35 582.74-1.9 584.24-1.9L584.24-1.9Q586.24-1.9 587.44-2.85 588.64-3.8 588.64-5.85L588.64-5.85Q588.64-7.7 587.04-8.78 585.44-9.85 583.34-10.85L583.34-10.85Q582.09-11.45 580.84-12.13 579.59-12.8 578.56-13.68 577.54-14.55 576.91-15.75 576.29-16.95 576.29-18.6L576.29-18.6Q576.29-21.7 578.51-23.43 580.74-25.15 583.99-25.15L583.99-25.15Q585.64-25.15 587.49-24.93 589.34-24.7 591.09-24.3L591.09-24.3 591.04-17.25 588.19-17.4 588.19-19.15Q588.19-19.45 587.91-20.25 587.64-21.05 587.31-21.93 586.99-22.8 586.79-23.3L586.79-23.3 588.49-21.45Q587.24-22.15 586.34-22.4 585.44-22.65 584.04-22.65L584.04-22.65Q582.29-22.65 581.19-21.78 580.09-20.9 580.09-19.3L580.09-19.3Q580.09-17.55 581.69-16.48 583.29-15.4 585.39-14.45L585.39-14.45Q586.69-13.85 587.94-13.15 589.19-12.45 590.24-11.58 591.29-10.7 591.91-9.53 592.54-8.35 592.54-6.75L592.54-6.75Q592.54-2.8 590.29-1.15 588.04 0.5 584.19 0.5ZM596.73 11.65L596.73 11.65 596.48 9.2 601.53 8.05 599.53 9.95Q599.63 9.55 599.81 8.55 599.98 7.55 600.16 6.43 600.33 5.3 600.33 4.7L600.33 4.7 600.33-17.8Q600.33-18.45 600.16-19.58 599.98-20.7 599.78-21.83 599.58-22.95 599.48-23.45L599.48-23.45 601.53-21.15 596.03-22.1 596.28-24.7 602.48-24.7 603.43-23.8 603.83-18.95 603.53-19.75Q603.68-21.1 604.83-22.33 605.98-23.55 607.58-24.33 609.18-25.1 610.63-25.1L610.63-25.1Q615.53-25.1 618.26-21.88 620.98-18.65 620.98-12.8L620.98-12.8Q620.98-9 619.48-5.98 617.98-2.95 615.41-1.23 612.83 0.5 609.58 0.5L609.58 0.5Q608.08 0.5 606.48 0.03 604.88-0.45 603.33-1.25L603.33-1.25 603.38-4.8Q604.88-3.55 606.41-2.95 607.93-2.35 609.33-2.35L609.33-2.35Q612.93-2.35 614.88-5.05 616.83-7.75 616.83-12.75L616.83-12.75Q616.83-17.5 615.21-19.93 613.58-22.35 610.48-22.35L610.48-22.35Q607.58-22.35 605.83-20.13 604.08-17.9 604.08-14.3L604.08-14.3 604.08 3.2Q604.08 5.15 604.26 7.2 604.43 9.25 604.58 10.15L604.58 10.15 602.73 8.25 609.43 8.75 609.13 11.4 601.68 11.4Q601.18 11.4 600.36 11.45 599.53 11.5 598.58 11.55 597.63 11.6 596.73 11.65ZM625.28 0.25L625.28 0.25 625.03-2.15 630.63-3.3 628.63-1.45Q628.73-1.85 628.91-2.85 629.08-3.85 629.26-4.98 629.43-6.1 629.43-6.7L629.43-6.7 629.43-17.8Q629.43-18.45 629.31-19.48 629.18-20.5 629.01-21.6 628.83-22.7 628.68-23.45L628.68-23.45 630.63-21.15 625.13-22.1 625.38-24.7 632.58-24.7 633.53-23.8Q633.48-23.05 633.41-21.73 633.33-20.4 633.28-18.95 633.23-17.5 633.23-16.3L633.23-16.3 633.23-8.2Q633.23-6.25 633.38-4.2 633.53-2.15 633.68-1.25L633.68-1.25 631.83-3.1 637.48-2.6 637.13 0 630.78 0Q630.28 0 629.33 0.05 628.38 0.1 627.31 0.15 626.23 0.2 625.28 0.25ZM630.58-29.6L630.58-29.6Q629.18-29.6 628.43-30.45 627.68-31.3 627.68-32.7L627.68-32.7Q627.68-34.15 628.43-35.02 629.18-35.9 630.58-35.9L630.58-35.9Q631.98-35.9 632.73-35.08 633.48-34.25 633.48-32.7L633.48-32.7Q633.48-31.3 632.76-30.45 632.03-29.6 630.58-29.6ZM652.28 0.5L652.28 0.5Q648.48 0.5 645.95-1.13 643.43-2.75 642.18-5.65 640.93-8.55 640.93-12.3L640.93-12.3Q640.93-16.1 642.2-18.98 643.48-21.85 646.03-23.48 648.58-25.1 652.38-25.1L652.38-25.1Q654.58-25.1 656.23-24.6 657.88-24.1 660.13-23.3L660.13-23.3 659.63-17.35 656.88-17.5 656.88-19.2Q656.88-19.6 656.6-20.53 656.33-21.45 656.08-22.25L656.08-22.25 657.63-20.65Q656.28-21.35 654.95-21.88 653.63-22.4 652.33-22.4L652.33-22.4Q649.78-22.4 648.25-20.88 646.73-19.35 646.03-17.05 645.33-14.75 645.33-12.3L645.33-12.3Q645.33-9.85 646-7.63 646.68-5.4 648.18-4 649.68-2.6 652.23-2.6L652.23-2.6Q654.08-2.6 655.8-3.1 657.53-3.6 659.33-4.45L659.33-4.45 660.68-2.15Q658.58-0.75 656.53-0.13 654.48 0.5 652.28 0.5ZM664.63 0.25L664.63 0.25 664.38-2.15 669.98-3.3 667.98-1.45Q668.08-1.85 668.25-2.85 668.43-3.85 668.6-4.98 668.78-6.1 668.78-6.7L668.78-6.7 668.78-17.8Q668.78-18.45 668.65-19.48 668.53-20.5 668.35-21.6 668.18-22.7 668.03-23.45L668.03-23.45 669.98-21.15 664.48-22.1 664.73-24.7 671.93-24.7 672.88-23.8Q672.83-23.05 672.75-21.73 672.68-20.4 672.63-18.95 672.58-17.5 672.58-16.3L672.58-16.3 672.58-8.2Q672.58-6.25 672.73-4.2 672.88-2.15 673.03-1.25L673.03-1.25 671.18-3.1 676.83-2.6 676.48 0 670.13 0Q669.63 0 668.68 0.05 667.73 0.1 666.65 0.15 665.58 0.2 664.63 0.25ZM669.93-29.6L669.93-29.6Q668.53-29.6 667.78-30.45 667.03-31.3 667.03-32.7L667.03-32.7Q667.03-34.15 667.78-35.02 668.53-35.9 669.93-35.9L669.93-35.9Q671.33-35.9 672.08-35.08 672.83-34.25 672.83-32.7L672.83-32.7Q672.83-31.3 672.1-30.45 671.38-29.6 669.93-29.6ZM691.72 0.5L691.72 0.5Q687.92 0.5 685.37-1.15 682.82-2.8 681.55-5.68 680.27-8.55 680.27-12.3L680.27-12.3Q680.27-16.1 681.55-18.98 682.82-21.85 685.37-23.5 687.92-25.15 691.72-25.15L691.72-25.15Q697.42-25.15 700.25-21.63 703.07-18.1 703.07-12.3L703.07-12.3Q703.07-8.55 701.8-5.65 700.52-2.75 698-1.13 695.47 0.5 691.72 0.5ZM691.72-2.2L691.72-2.2Q694.42-2.2 695.97-3.7 697.52-5.2 698.15-7.53 698.77-9.85 698.77-12.3L698.77-12.3Q698.77-14.8 698.15-17.13 697.52-19.45 695.97-20.95 694.42-22.45 691.72-22.45L691.72-22.45Q689.02-22.45 687.47-20.98 685.92-19.5 685.25-17.18 684.57-14.85 684.57-12.3L684.57-12.3Q684.57-9.8 685.25-7.48 685.92-5.15 687.47-3.68 689.02-2.2 691.72-2.2ZM718.47 0.55L718.47 0.55Q714.97 0.55 713.25-0.93 711.52-2.4 710.97-5.03 710.42-7.65 710.42-11.05L710.42-11.05 710.42-17.8Q710.42-18.25 710.32-19.13 710.22-20 710.05-21.05 709.87-22.1 709.72-22.95L709.72-22.95 711.52-21.1 706.57-22.1 706.77-24.7 713.57-24.7 714.52-23.8Q714.47-22.75 714.37-21.35 714.27-19.95 714.22-18.6 714.17-17.25 714.17-16.3L714.17-16.3 714.17-9.15Q714.17-6.25 715.27-4.38 716.37-2.5 719.27-2.5L719.27-2.5Q721.42-2.5 722.82-3.65 724.22-4.8 724.95-6.63 725.67-8.45 725.67-10.4L725.67-10.4 725.67-17.8Q725.67-18.25 725.57-19.13 725.47-20 725.32-21.05 725.17-22.1 725.02-22.95L725.02-22.95 726.87-21.15 721.67-22.1 721.87-24.7 728.82-24.7 729.77-23.8Q729.72-22.75 729.65-21.35 729.57-19.95 729.52-18.6 729.47-17.25 729.47-16.3L729.47-16.3 729.47-8.2Q729.47-6.5 729.7-4.78 729.92-3.05 730.07-1.3L730.07-1.3 728.27-3.15 733.47-2.6 733.17 0 726.92 0 725.97-5.55 726.47-4.35Q726.17-3.75 725.3-2.58 724.42-1.4 722.8-0.43 721.17 0.55 718.47 0.55ZM745.27 0.5L745.27 0.5Q742.22 0.5 740.29-0.28 738.37-1.05 737.52-1.55L737.52-1.55 737.52-8 740.37-8.2 740.37-6.2Q740.37-5.85 740.62-5.05 740.87-4.25 741.27-3.4 741.67-2.55 742.07-1.95L742.07-1.95 740.62-4.1Q741.52-2.8 742.67-2.35 743.82-1.9 745.32-1.9L745.32-1.9Q747.32-1.9 748.52-2.85 749.72-3.8 749.72-5.85L749.72-5.85Q749.72-7.7 748.12-8.78 746.52-9.85 744.42-10.85L744.42-10.85Q743.17-11.45 741.92-12.13 740.67-12.8 739.64-13.68 738.62-14.55 737.99-15.75 737.37-16.95 737.37-18.6L737.37-18.6Q737.37-21.7 739.59-23.43 741.82-25.15 745.07-25.15L745.07-25.15Q746.72-25.15 748.57-24.93 750.42-24.7 752.17-24.3L752.17-24.3 752.12-17.25 749.27-17.4 749.27-19.15Q749.27-19.45 748.99-20.25 748.72-21.05 748.39-21.93 748.07-22.8 747.87-23.3L747.87-23.3 749.57-21.45Q748.32-22.15 747.42-22.4 746.52-22.65 745.12-22.65L745.12-22.65Q743.37-22.65 742.27-21.78 741.17-20.9 741.17-19.3L741.17-19.3Q741.17-17.55 742.77-16.48 744.37-15.4 746.47-14.45L746.47-14.45Q747.77-13.85 749.02-13.15 750.27-12.45 751.32-11.58 752.37-10.7 752.99-9.53 753.62-8.35 753.62-6.75L753.62-6.75Q753.62-2.8 751.37-1.15 749.12 0.5 745.27 0.5ZM786.76 0.75L786.76 0.75Q780.41 0.75 777.21-3.08 774.01-6.9 774.01-13.3L774.01-13.3 774.01-28.25Q774.01-28.8 773.86-29.93 773.71-31.05 773.54-32.25 773.36-33.45 773.21-34.1L773.21-34.1 775.26-32.05 769.51-32.9 769.76-35.5Q770.71-35.45 771.86-35.4 773.01-35.35 774.04-35.3 775.06-35.25 775.51-35.25L775.51-35.25Q776.41-35.25 777.79-35.3 779.16-35.35 780.51-35.4 781.86-35.45 782.66-35.5L782.66-35.5 782.86-32.65 777.16-32.15 779.01-34.1Q778.96-33.55 778.84-32.3 778.71-31.05 778.61-29.55 778.51-28.05 778.51-26.75L778.51-26.75 778.51-13.3Q778.51-10.1 779.46-7.6 780.41-5.1 782.36-3.68 784.31-2.25 787.21-2.25L787.21-2.25Q790.26-2.25 792.24-3.7 794.21-5.15 795.21-7.65 796.21-10.15 796.21-13.3L796.21-13.3 796.21-28.25Q796.21-28.65 796.11-29.5 796.01-30.35 795.86-31.33 795.71-32.3 795.59-33.08 795.46-33.85 795.41-34.1L795.41-34.1 797.61-32 791.76-32.9 792.01-35.5Q793.41-35.45 794.96-35.35 796.51-35.25 797.26-35.25L797.26-35.25Q798.86-35.25 800.61-35.35 802.36-35.45 803.76-35.5L803.76-35.5 803.96-32.65 798.26-32.15 800.11-34.1Q800.06-33.55 799.94-32.3 799.81-31.05 799.71-29.55 799.61-28.05 799.61-26.75L799.61-26.75 799.61-13.3Q799.61-6.9 796.39-3.08 793.16 0.75 786.76 0.75ZM809.36 0.25L809.36 0.25 809.11-2.2 814.81-3.35 812.86-1.4Q812.96-1.85 813.11-2.93 813.26-4 813.41-5.13 813.56-6.25 813.56-6.75L813.56-6.75 813.56-28.5Q813.56-29.05 813.44-30.13 813.31-31.2 813.14-32.3 812.96-33.4 812.86-33.9L812.86-33.9 814.81-32 809.21-32.9 809.46-35.5Q810.41-35.45 811.56-35.4 812.71-35.35 813.74-35.3 814.76-35.25 815.21-35.25L815.21-35.25 818.41-33.9Q818.36-33.5 818.24-32.35 818.11-31.2 817.99-29.75 817.86-28.3 817.86-27L817.86-27 817.86-8.25Q817.86-6.95 817.96-5.63 818.06-4.3 818.21-3.18 818.36-2.05 818.46-1.4L818.46-1.4 816.51-3.15 822.86-2.65 822.51 0 816.06 0Q815.46 0 814.31 0.05 813.16 0.1 811.84 0.15 810.51 0.2 809.36 0.25ZM838.26 0L830.51 0Q830.06-1 829.49-2.2 828.91-3.4 828.41-4.4 827.91-5.4 827.71-5.8L827.71-5.8 821.66-17.25 826.36-17.45Q827.71-14.8 829.04-12.4 830.36-10 831.34-8.4 832.31-6.8 832.46-6.55L832.46-6.55Q832.81-6 833.56-4.93 834.31-3.85 834.96-3L834.96-3 838.61-2.65 838.26 0ZM822.46-15.15L822.46-15.15Q820.46-15.15 818.46-15.2 816.46-15.25 814.46-15.35L814.46-15.35 814.46-18.2Q816.21-18 817.96-17.75 819.71-17.5 821.46-17.5L821.46-17.5Q825.36-17.5 827.71-19.48 830.06-21.45 830.06-25.4L830.06-25.4Q830.06-29.2 827.71-31.15 825.36-33.1 821.46-33.1L821.46-33.1Q820.56-33.1 819.51-33.05 818.46-33 817.39-32.88 816.31-32.75 815.21-32.6L815.21-32.6 815.21-35.25Q817.26-35.25 819.36-35.38 821.46-35.5 823.51-35.5L823.51-35.5Q826.96-35.5 829.41-34.38 831.86-33.25 833.19-31 834.51-28.75 834.51-25.4L834.51-25.4Q834.51-22.15 832.89-19.85 831.26-17.55 828.51-16.35 825.76-15.15 822.46-15.15ZM844.01 0.25L844.01 0.25 843.76-2.2 849.46-3.35 847.51-1.4Q847.61-1.85 847.76-2.93 847.91-4 848.06-5.13 848.21-6.25 848.21-6.75L848.21-6.75 848.21-28.5Q848.21-29.05 848.08-30.13 847.96-31.2 847.78-32.3 847.61-33.4 847.51-33.9L847.51-33.9 849.46-32 843.86-32.9 844.11-35.5Q845.06-35.45 846.21-35.4 847.36-35.35 848.38-35.3 849.41-35.25 849.86-35.25L849.86-35.25Q850.96-35.25 852.23-35.3 853.51-35.35 854.66-35.38 855.81-35.4 856.51-35.45 857.21-35.5 857.11-35.5L857.11-35.5 857.31-32.65 851.16-32.15 853.06-33.9Q853.01-33.5 852.86-32.35 852.71-31.2 852.61-29.75 852.51-28.3 852.51-27L852.51-27 852.51-8.25Q852.51-6.95 852.61-5.63 852.71-4.3 852.86-3.18 853.01-2.05 853.11-1.4L853.11-1.4 851.11-2.75 858.86-2.75Q860.36-2.75 861.83-2.98 863.31-3.2 863.96-3.35L863.96-3.35 862.46-2.15Q863.01-2.85 863.61-3.7 864.21-4.55 864.31-5L864.31-5 865.06-8.4 867.76-8.15 867.01-0.7 866.06 0.2Q864.86 0.15 863.73 0.1 862.61 0.05 861.73 0.03 860.86 0 860.36 0L860.36 0 850.71 0Q850.11 0 848.98 0.05 847.86 0.1 846.56 0.15 845.26 0.2 844.01 0.25Z" opacity="1" transform="matrix(1,0,0,1,0,0)" fill="#000000" class="slogan-text-1" data-fill-palette-color="secondary" id="text-1"></path></svg></g></svg></g></svg></g></svg></g><g transform="matrix(1,0,0,1,257.84131815114443,0)"><svg viewBox="0 0 139.01595795744095 109.8827740954513" height="109.8827740954513" width="139.01595795744095"><g><svg xmlns="http://www.w3.org/2000/svg" xmlns:xlink="http://www.w3.org/1999/xlink" version="1.1" x="0" y="0" viewBox="0 5.084325396825397 50.31 39.7666746031746" enable-background="new 0 0 50.4 50.4" xml:space="preserve" width="139.01595795744095" height="109.8827740954513" class="icon-icon-0" data-fill-palette-color="accent" id="icon-0"><g fill="#000000" data-fill-palette-color="accent"><path d="M41.649 23.482v-2.066c0-0.796-0.651-1.443-1.449-1.443h-2.802c-0.796 0-1.445 0.647-1.445 1.443v2.066h-3.462v6.753h12.734v-6.753H41.649zM37.459 21.783c0-0.169 0.137-0.307 0.307-0.307h2.068c0.172 0 0.309 0.138 0.309 0.307v1.699h-2.684V21.783z" fill="#000000" data-fill-palette-color="accent"></path></g><g fill="#000000" data-fill-palette-color="accent"><g fill="#000000" data-fill-palette-color="accent"><circle cx="15.066" cy="16.246" r="2.4" fill="#000000" data-fill-palette-color="accent"></circle><path d="M25.352 17.454c0-0.016 0-0.031 0-0.046-0.003-0.034-0.006-0.068-0.008-0.102-0.004-0.031-0.005-0.06-0.012-0.09-0.001-0.016-0.004-0.031-0.007-0.048-0.008-0.031-0.016-0.061-0.026-0.092-0.009-0.03-0.018-0.06-0.029-0.09-0.006-0.017-0.014-0.036-0.021-0.052-0.004-0.009-0.006-0.018-0.01-0.026-0.01-0.02-0.023-0.037-0.035-0.058-0.01-0.019-0.016-0.039-0.026-0.058-0.004-0.007-0.013-0.014-0.017-0.022-0.007-0.01-0.01-0.02-0.017-0.029l-3.868-5.676c-0.375-0.549-1.124-0.69-1.673-0.316-0.551 0.374-0.691 1.124-0.317 1.673l3.072 4.509-5.079 2.386c-0.504-0.004-3.978-0.005-4.501 0L7.701 16.93l3.073-4.509c0.375-0.55 0.233-1.299-0.315-1.673-0.55-0.374-1.3-0.233-1.675 0.316L4.915 16.74c-0.006 0.009-0.009 0.02-0.016 0.029-0.004 0.008-0.012 0.015-0.016 0.022-0.012 0.019-0.018 0.038-0.028 0.057-0.011 0.021-0.024 0.037-0.035 0.058-0.004 0.008-0.006 0.018-0.009 0.026-0.008 0.017-0.014 0.036-0.021 0.052-0.012 0.03-0.02 0.061-0.03 0.09-0.008 0.032-0.018 0.061-0.025 0.092-0.002 0.015-0.006 0.033-0.009 0.048-0.006 0.03-0.006 0.06-0.011 0.09-0.002 0.033-0.007 0.067-0.007 0.101 0 0.016-0.001 0.031 0 0.048 0 0.027 0.005 0.054 0.008 0.081 0.003 0.038 0.008 0.073 0.016 0.108 0.002 0.014 0 0.027 0.004 0.04 0 0.005 0.001 0.006 0.003 0.01 0.005 0.023 0.016 0.047 0.022 0.07 0.011 0.036 0.023 0.073 0.038 0.108 0.014 0.036 0.031 0.071 0.05 0.106 0.017 0.033 0.036 0.065 0.056 0.096 0.011 0.018 0.021 0.037 0.034 0.054 0.011 0.016 0.025 0.029 0.037 0.044C5 18.202 5.025 18.23 5.051 18.258c0.016 0.016 0.03 0.033 0.047 0.049 0.015 0.013 0.032 0.024 0.048 0.037 0.029 0.025 0.058 0.046 0.09 0.068 0.017 0.011 0.03 0.024 0.046 0.036l6.178 3.766-0.002 21.164c0 0.812 0.664 1.473 1.477 1.473s1.375-0.66 1.375-1.473l0.002-11.348h1.371l0.001 11.348c0 0.812 0.686 1.473 1.5 1.473 0.813 0 1.353-0.66 1.353-1.473l-0.004-21.121 6.246-3.809c0.016-0.012 0.03-0.024 0.046-0.036 0.033-0.021 0.061-0.043 0.091-0.068 0.016-0.013 0.032-0.023 0.048-0.037 0.017-0.016 0.03-0.033 0.046-0.049 0.027-0.028 0.053-0.056 0.076-0.085 0.012-0.016 0.027-0.028 0.038-0.044 0.013-0.017 0.021-0.037 0.034-0.054 0.02-0.031 0.038-0.063 0.056-0.096 0.018-0.035 0.036-0.07 0.049-0.106 0.016-0.035 0.026-0.072 0.037-0.108 0.008-0.024 0.018-0.048 0.023-0.071 0.002-0.003 0.003-0.005 0.003-0.009 0.002-0.012 0.002-0.024 0.004-0.037 0.006-0.037 0.011-0.074 0.015-0.111C25.345 17.509 25.352 17.481 25.352 17.454z" fill="#000000" data-fill-palette-color="accent"></path></g><polygon points="2.648,44.772 0,44.772 0,5.125 30.133,5.125 30.133,13.922 27.483,13.922 27.483,7.773 2.648,7.773 2.648,44.772     " fill="#000000" data-fill-palette-color="accent"></polygon><path d="M50.301 15.917H27.484l-0.01 28.894h22.836L50.301 15.917zM30.134 18.565h17.518v13.102H30.134V18.565z" fill="#000000" data-fill-palette-color="accent"></path></g></svg></g></svg></g></svg></g></svg></g><g><path d="M245.816 0c68.262 0 123.6 55.338 123.6 123.6 0 68.262-55.338 123.6-123.6 123.6-55.016 0-101.637-35.945-117.659-85.631l1.659 0c15.963 48.801 61.865 84.053 116 84.053 67.391 0 122.022-54.631 122.022-122.022 0-67.391-54.631-122.022-122.022-122.022-54.135 0-100.036 35.252-116 84.053l-1.659 0c16.022-49.686 62.643-85.631 117.659-85.631z" fill="#6b7280" stroke="transparent" data-fill-palette-color="tertiary"></path></g></svg></g><defs></defs></svg><rect width="395.52" height="247.2" fill="none" stroke="none" visibility="hidden"></rect></g></svg></g></svg>